<mxfile host="app.diagrams.net" modified="2023-10-09T01:47:05.300Z" agent="Mozilla/5.0 (Windows NT 10.0; Win64; x64) AppleWebKit/537.36 (KHTML, like Gecko) Chrome/117.0.0.0 Safari/537.36" etag="aTnAwiXRwIiYw1Zw4TJm" version="22.0.4" type="device">
  <diagram id="C5RBs43oDa-KdzZeNtuy" name="Page-1">
    <mxGraphModel dx="800" dy="415" grid="1" gridSize="10" guides="1" tooltips="1" connect="1" arrows="1" fold="1" page="1" pageScale="1" pageWidth="827" pageHeight="1169" math="0" shadow="0">
      <root>
        <mxCell id="WIyWlLk6GJQsqaUBKTNV-0" />
        <mxCell id="WIyWlLk6GJQsqaUBKTNV-1" parent="WIyWlLk6GJQsqaUBKTNV-0" />
        <mxCell id="Pu9p4wXMUlOsR3WDGTyC-28" style="edgeStyle=orthogonalEdgeStyle;rounded=0;orthogonalLoop=1;jettySize=auto;html=1;entryX=0.5;entryY=0;entryDx=0;entryDy=0;fontSize=8;startSize=4;endSize=4;" edge="1" parent="WIyWlLk6GJQsqaUBKTNV-1" source="WIyWlLk6GJQsqaUBKTNV-3" target="Pu9p4wXMUlOsR3WDGTyC-4">
          <mxGeometry relative="1" as="geometry" />
        </mxCell>
        <mxCell id="WIyWlLk6GJQsqaUBKTNV-3" value="cancelar = falso" style="rounded=1;whiteSpace=wrap;html=1;fontSize=12;glass=0;strokeWidth=1;shadow=0;" parent="WIyWlLk6GJQsqaUBKTNV-1" vertex="1">
          <mxGeometry x="220" y="40" width="170" height="30" as="geometry" />
        </mxCell>
        <mxCell id="Pu9p4wXMUlOsR3WDGTyC-34" style="edgeStyle=orthogonalEdgeStyle;rounded=0;orthogonalLoop=1;jettySize=auto;html=1;entryX=0;entryY=0.25;entryDx=0;entryDy=0;exitX=0;exitY=0.5;exitDx=0;exitDy=0;" edge="1" parent="WIyWlLk6GJQsqaUBKTNV-1" source="WIyWlLk6GJQsqaUBKTNV-6" target="Pu9p4wXMUlOsR3WDGTyC-7">
          <mxGeometry relative="1" as="geometry">
            <Array as="points">
              <mxPoint x="120" y="780" />
              <mxPoint x="120" y="158" />
            </Array>
          </mxGeometry>
        </mxCell>
        <mxCell id="Pu9p4wXMUlOsR3WDGTyC-35" value="verdadero" style="edgeLabel;html=1;align=right;verticalAlign=middle;resizable=0;points=[];" vertex="1" connectable="0" parent="Pu9p4wXMUlOsR3WDGTyC-34">
          <mxGeometry x="-0.0944" y="2" relative="1" as="geometry">
            <mxPoint as="offset" />
          </mxGeometry>
        </mxCell>
        <mxCell id="WIyWlLk6GJQsqaUBKTNV-6" value="Activo == verdadero" style="rhombus;whiteSpace=wrap;html=1;shadow=0;fontFamily=Helvetica;fontSize=12;align=center;strokeWidth=1;spacing=6;spacingTop=-4;" parent="WIyWlLk6GJQsqaUBKTNV-1" vertex="1">
          <mxGeometry x="220" y="750" width="170" height="60" as="geometry" />
        </mxCell>
        <mxCell id="Pu9p4wXMUlOsR3WDGTyC-33" style="edgeStyle=orthogonalEdgeStyle;rounded=0;orthogonalLoop=1;jettySize=auto;html=1;entryX=0.5;entryY=0;entryDx=0;entryDy=0;endSize=4;startSize=4;" edge="1" parent="WIyWlLk6GJQsqaUBKTNV-1" source="Pu9p4wXMUlOsR3WDGTyC-0" target="WIyWlLk6GJQsqaUBKTNV-6">
          <mxGeometry relative="1" as="geometry" />
        </mxCell>
        <mxCell id="Pu9p4wXMUlOsR3WDGTyC-0" value="activo = &lt;br&gt;invoque al metodo finJuego" style="rounded=1;whiteSpace=wrap;html=1;fontSize=12;glass=0;strokeWidth=1;shadow=0;" vertex="1" parent="WIyWlLk6GJQsqaUBKTNV-1">
          <mxGeometry x="220" y="680" width="170" height="40" as="geometry" />
        </mxCell>
        <mxCell id="Pu9p4wXMUlOsR3WDGTyC-29" style="edgeStyle=orthogonalEdgeStyle;rounded=0;orthogonalLoop=1;jettySize=auto;html=1;entryX=0.5;entryY=0;entryDx=0;entryDy=0;startSize=4;endSize=4;jumpSize=6;" edge="1" parent="WIyWlLk6GJQsqaUBKTNV-1" source="Pu9p4wXMUlOsR3WDGTyC-4" target="Pu9p4wXMUlOsR3WDGTyC-7">
          <mxGeometry relative="1" as="geometry" />
        </mxCell>
        <mxCell id="Pu9p4wXMUlOsR3WDGTyC-4" value="ultimaCarta = 0" style="rounded=1;whiteSpace=wrap;html=1;fontSize=12;glass=0;strokeWidth=1;shadow=0;" vertex="1" parent="WIyWlLk6GJQsqaUBKTNV-1">
          <mxGeometry x="220" y="96" width="170" height="30" as="geometry" />
        </mxCell>
        <mxCell id="Pu9p4wXMUlOsR3WDGTyC-30" style="edgeStyle=orthogonalEdgeStyle;rounded=0;orthogonalLoop=1;jettySize=auto;html=1;entryX=0.5;entryY=0;entryDx=0;entryDy=0;endSize=4;startSize=4;" edge="1" parent="WIyWlLk6GJQsqaUBKTNV-1" source="Pu9p4wXMUlOsR3WDGTyC-7" target="Pu9p4wXMUlOsR3WDGTyC-8">
          <mxGeometry relative="1" as="geometry" />
        </mxCell>
        <mxCell id="Pu9p4wXMUlOsR3WDGTyC-7" value="cartaEspecial = falso" style="rounded=1;whiteSpace=wrap;html=1;fontSize=12;glass=0;strokeWidth=1;shadow=0;" vertex="1" parent="WIyWlLk6GJQsqaUBKTNV-1">
          <mxGeometry x="220" y="150" width="170" height="30" as="geometry" />
        </mxCell>
        <mxCell id="Pu9p4wXMUlOsR3WDGTyC-31" style="edgeStyle=orthogonalEdgeStyle;rounded=0;orthogonalLoop=1;jettySize=auto;html=1;entryX=0.5;entryY=0;entryDx=0;entryDy=0;endSize=4;startSize=4;" edge="1" parent="WIyWlLk6GJQsqaUBKTNV-1" source="Pu9p4wXMUlOsR3WDGTyC-8" target="Pu9p4wXMUlOsR3WDGTyC-9">
          <mxGeometry relative="1" as="geometry" />
        </mxCell>
        <mxCell id="Pu9p4wXMUlOsR3WDGTyC-8" value="comerEspecial = 0" style="rounded=1;whiteSpace=wrap;html=1;fontSize=12;glass=0;strokeWidth=1;shadow=0;" vertex="1" parent="WIyWlLk6GJQsqaUBKTNV-1">
          <mxGeometry x="220" y="200" width="170" height="30" as="geometry" />
        </mxCell>
        <mxCell id="Pu9p4wXMUlOsR3WDGTyC-32" style="edgeStyle=orthogonalEdgeStyle;rounded=0;orthogonalLoop=1;jettySize=auto;html=1;entryX=0.5;entryY=0;entryDx=0;entryDy=0;endSize=4;startSize=4;" edge="1" parent="WIyWlLk6GJQsqaUBKTNV-1" source="Pu9p4wXMUlOsR3WDGTyC-9" target="Pu9p4wXMUlOsR3WDGTyC-10">
          <mxGeometry relative="1" as="geometry" />
        </mxCell>
        <mxCell id="Pu9p4wXMUlOsR3WDGTyC-9" value="imprima &quot;Ultima carta jugada&quot; + ultimaCartaJugada" style="rounded=1;whiteSpace=wrap;html=1;fontSize=12;glass=0;strokeWidth=1;shadow=0;" vertex="1" parent="WIyWlLk6GJQsqaUBKTNV-1">
          <mxGeometry x="220" y="260" width="170" height="50" as="geometry" />
        </mxCell>
        <mxCell id="Pu9p4wXMUlOsR3WDGTyC-15" style="edgeStyle=orthogonalEdgeStyle;rounded=0;orthogonalLoop=1;jettySize=auto;html=1;endSize=4;startSize=4;" edge="1" parent="WIyWlLk6GJQsqaUBKTNV-1" source="Pu9p4wXMUlOsR3WDGTyC-10" target="Pu9p4wXMUlOsR3WDGTyC-11">
          <mxGeometry relative="1" as="geometry" />
        </mxCell>
        <mxCell id="Pu9p4wXMUlOsR3WDGTyC-10" value="cancelar = TEST" style="rounded=1;whiteSpace=wrap;html=1;fontSize=12;glass=0;strokeWidth=1;shadow=0;" vertex="1" parent="WIyWlLk6GJQsqaUBKTNV-1">
          <mxGeometry x="220" y="340" width="170" height="30" as="geometry" />
        </mxCell>
        <mxCell id="Pu9p4wXMUlOsR3WDGTyC-12" value="falso" style="edgeStyle=orthogonalEdgeStyle;rounded=0;orthogonalLoop=1;jettySize=auto;html=1;entryX=0;entryY=0.5;entryDx=0;entryDy=0;fontSize=12;verticalAlign=bottom;startSize=4;endSize=4;" edge="1" parent="WIyWlLk6GJQsqaUBKTNV-1" source="Pu9p4wXMUlOsR3WDGTyC-11" target="Pu9p4wXMUlOsR3WDGTyC-14">
          <mxGeometry relative="1" as="geometry">
            <mxPoint x="490" y="470" as="targetPoint" />
          </mxGeometry>
        </mxCell>
        <mxCell id="Pu9p4wXMUlOsR3WDGTyC-21" style="edgeStyle=orthogonalEdgeStyle;rounded=0;orthogonalLoop=1;jettySize=auto;html=1;entryX=0.5;entryY=0;entryDx=0;entryDy=0;endSize=4;startSize=4;" edge="1" parent="WIyWlLk6GJQsqaUBKTNV-1" source="Pu9p4wXMUlOsR3WDGTyC-11" target="Pu9p4wXMUlOsR3WDGTyC-16">
          <mxGeometry relative="1" as="geometry" />
        </mxCell>
        <mxCell id="Pu9p4wXMUlOsR3WDGTyC-11" value="cancelar == verdadero" style="rhombus;whiteSpace=wrap;html=1;shadow=0;fontFamily=Helvetica;fontSize=12;align=center;strokeWidth=1;spacing=6;spacingTop=-4;" vertex="1" parent="WIyWlLk6GJQsqaUBKTNV-1">
          <mxGeometry x="220" y="400" width="170" height="80" as="geometry" />
        </mxCell>
        <mxCell id="Pu9p4wXMUlOsR3WDGTyC-14" value="invoque al metodo jugarComputadora" style="rounded=1;whiteSpace=wrap;html=1;fontSize=12;glass=0;strokeWidth=1;shadow=0;" vertex="1" parent="WIyWlLk6GJQsqaUBKTNV-1">
          <mxGeometry x="520" y="420" width="170" height="40" as="geometry" />
        </mxCell>
        <mxCell id="Pu9p4wXMUlOsR3WDGTyC-23" style="edgeStyle=orthogonalEdgeStyle;rounded=0;orthogonalLoop=1;jettySize=auto;html=1;entryX=0.5;entryY=0;entryDx=0;entryDy=0;endSize=4;startSize=4;" edge="1" parent="WIyWlLk6GJQsqaUBKTNV-1" source="Pu9p4wXMUlOsR3WDGTyC-16" target="Pu9p4wXMUlOsR3WDGTyC-17">
          <mxGeometry relative="1" as="geometry" />
        </mxCell>
        <mxCell id="Pu9p4wXMUlOsR3WDGTyC-16" value="imprima nombreJugador1 &lt;br&gt;+ &quot;tu turno fue cancelado&quot;" style="rounded=1;whiteSpace=wrap;html=1;fontSize=12;glass=0;strokeWidth=1;shadow=0;" vertex="1" parent="WIyWlLk6GJQsqaUBKTNV-1">
          <mxGeometry x="220" y="500" width="170" height="40" as="geometry" />
        </mxCell>
        <mxCell id="Pu9p4wXMUlOsR3WDGTyC-25" style="edgeStyle=orthogonalEdgeStyle;rounded=0;orthogonalLoop=1;jettySize=auto;html=1;exitX=0.5;exitY=1;exitDx=0;exitDy=0;entryX=0.5;entryY=0;entryDx=0;entryDy=0;endSize=4;startSize=4;" edge="1" parent="WIyWlLk6GJQsqaUBKTNV-1" source="Pu9p4wXMUlOsR3WDGTyC-17" target="Pu9p4wXMUlOsR3WDGTyC-20">
          <mxGeometry relative="1" as="geometry" />
        </mxCell>
        <mxCell id="Pu9p4wXMUlOsR3WDGTyC-17" value="ultimaCarta = &lt;br&gt;tamanio(basura) - 2" style="rounded=1;whiteSpace=wrap;html=1;fontSize=12;glass=0;strokeWidth=1;shadow=0;" vertex="1" parent="WIyWlLk6GJQsqaUBKTNV-1">
          <mxGeometry x="220" y="560" width="170" height="40" as="geometry" />
        </mxCell>
        <mxCell id="Pu9p4wXMUlOsR3WDGTyC-27" style="edgeStyle=orthogonalEdgeStyle;rounded=0;orthogonalLoop=1;jettySize=auto;html=1;entryX=0.5;entryY=0;entryDx=0;entryDy=0;startSize=4;endSize=4;strokeWidth=1;" edge="1" parent="WIyWlLk6GJQsqaUBKTNV-1" source="Pu9p4wXMUlOsR3WDGTyC-20" target="Pu9p4wXMUlOsR3WDGTyC-0">
          <mxGeometry relative="1" as="geometry" />
        </mxCell>
        <mxCell id="Pu9p4wXMUlOsR3WDGTyC-20" value="cancelar = falso" style="rounded=1;whiteSpace=wrap;html=1;fontSize=12;glass=0;strokeWidth=1;shadow=0;" vertex="1" parent="WIyWlLk6GJQsqaUBKTNV-1">
          <mxGeometry x="220" y="620" width="170" height="30" as="geometry" />
        </mxCell>
      </root>
    </mxGraphModel>
  </diagram>
</mxfile>
